<svg id="Camada_1" data-name="Camada 1" xmlns="http://www.w3.org/2000/svg" xmlns:xlink="http://www.w3.org/1999/xlink" viewBox="0 0 275.46 275.46"><defs><style>.cls-1{fill:url(#Gradiente_sem_nome_20);}</style><linearGradient id="Gradiente_sem_nome_20" x1="507.25" y1="261.45" x2="507.25" y2="536.91" gradientUnits="userSpaceOnUse"><stop offset="0" stop-color="#0b0914"/><stop offset="0.06" stop-color="#0c0c1a"/><stop offset="0.14" stop-color="#10142a"/><stop offset="0.24" stop-color="#172146"/><stop offset="0.34" stop-color="#20346c"/><stop offset="0.44" stop-color="#2b4a9a"/><stop offset="0.67" stop-color="#3c4e86"/><stop offset="1" stop-color="#5b5562"/></linearGradient></defs><title>Logo</title><path class="cls-1" d="M633.74,383.37a126.68,126.68,0,0,0-28.6-65.9,14.57,14.57,0,0,0-20.5-19.63,126.64,126.64,0,0,0-65.47-25.58,14.57,14.57,0,0,0-28.3.57,126.67,126.67,0,0,0-62.82,26.86,14.57,14.57,0,0,0-20.22,20.36,126.66,126.66,0,0,0-26.51,63.19,14.58,14.58,0,0,0-.34,28.55,126.53,126.53,0,0,0,25.67,64.48,14.57,14.57,0,0,0,19.8,20.57A126.62,126.62,0,0,0,490.76,525a14.57,14.57,0,0,0,28.55.58,126.52,126.52,0,0,0,66-26.06,14.57,14.57,0,0,0,20.39-19.72,126.64,126.64,0,0,0,28.43-68.11,14.57,14.57,0,0,0-.34-28.28Zm-41.15-58.73a14.49,14.49,0,0,0,8.07-2.44,120.15,120.15,0,0,1,26.54,61.14,14.57,14.57,0,0,0-9.31,6.74l-37.25-14c0-.41.07-.82.07-1.24a14.56,14.56,0,0,0-6.18-11.9l16.3-38.45A14.58,14.58,0,0,0,592.59,324.64Zm-7.87-2.32L568.53,360.5a14.48,14.48,0,0,0-16,9.27L485.1,354.26a14.65,14.65,0,0,0-.3-2.91l95.61-33.29A14.47,14.47,0,0,0,584.72,322.32Zm-79.63-31.71a14.59,14.59,0,0,0,14.32-11.83,120,120,0,0,1,60.71,23.75,14.5,14.5,0,0,0-2.11,7.53,15.22,15.22,0,0,0,.14,1.92l-96.09,33.46a15,15,0,0,0-2.65-2.64l25.21-52.21Zm-14.18-11.25a14.56,14.56,0,0,0,7.33,9.54l-24.71,51.18a14.16,14.16,0,0,0-3-.32,14.51,14.51,0,0,0-8.31,2.61l-29.29-24.46a14.44,14.44,0,0,0-.49-13.42A120.18,120.18,0,0,1,490.91,279.36Zm-92.58,115,60.58-31.24a14.56,14.56,0,0,0,11.5,5.77l20.76,66.37a14.53,14.53,0,0,0-3.21,3.56l-89.81-37.42a14.58,14.58,0,0,0,.54-3.87A14.39,14.39,0,0,0,398.33,394.39Zm14.31-70A14.54,14.54,0,0,0,428.92,323l28.92,24.15a14.55,14.55,0,0,0-1.61,10.08l-60.68,31.29a14.6,14.6,0,0,0-7.72-5.06A120.09,120.09,0,0,1,412.64,324.4Zm6,145.53a14.49,14.49,0,0,0-7.24,1.94,120.25,120.25,0,0,1-23.94-60.14,14.56,14.56,0,0,0,7.57-4.57L485.76,445a14.59,14.59,0,0,0-.11,1.76,14.34,14.34,0,0,0,.87,4.92l-54.85,26.28A14.58,14.58,0,0,0,418.67,469.93ZM491,518.47a120.25,120.25,0,0,1-60-26.25,14.57,14.57,0,0,0,2.22-7.71c0-.05,0-.11,0-.17L490,457.13a14.64,14.64,0,0,0,5.15,3.25l3.4,48.9A14.6,14.6,0,0,0,491,518.47Zm6-86-20.32-65a14.57,14.57,0,0,0,6.93-6.93l67.92,15.64a14.44,14.44,0,0,0,2.32,6.63L507.34,434a14.46,14.46,0,0,0-7.11-1.86A14.9,14.9,0,0,0,497.08,432.47ZM519.29,519a14.57,14.57,0,0,0-14.2-11.3H505l-3.23-46.53a14.48,14.48,0,0,0,8.91-4.33l67.91,30c0,.13,0,.25,0,.37a14.48,14.48,0,0,0,2.15,7.61A120,120,0,0,1,519.29,519Zm60.91-38.56L514.06,451.3a14.49,14.49,0,0,0-1.91-13l46.45-51a14.48,14.48,0,0,0,7.52,2.1,13.23,13.23,0,0,0,1.79-.12l17.36,85.61A14.69,14.69,0,0,0,580.2,480.48ZM601.13,475a14.54,14.54,0,0,0-8-2.4,13.45,13.45,0,0,0-1.69.11l-17.37-85.65a14.53,14.53,0,0,0,4.59-4.8l37.22,14c0,.43-.06.86-.06,1.31a14.57,14.57,0,0,0,11.71,14.29A120.2,120.2,0,0,1,601.13,475Z" transform="translate(-369.52 -261.45)"/></svg>