<svg id="Camada_1" data-name="Camada 1" xmlns="http://www.w3.org/2000/svg" xmlns:xlink="http://www.w3.org/1999/xlink" viewBox="0 0 377.39 52.15"><defs><style>.cls-1{font-size:46.86px;fill:#010101;font-family:Montserrat-Medium, Montserrat;font-weight:500;}.cls-2{fill:url(#Gradiente_sem_nome_77);}</style><linearGradient id="Gradiente_sem_nome_77" x1="516.84" y1="593.82" x2="516.84" y2="569.54" gradientUnits="userSpaceOnUse"><stop offset="0" stop-color="#010101"/><stop offset="1" stop-color="#2b4b9b"/></linearGradient></defs><title>Nome</title><text class="cls-1" transform="translate(0 39.83)">BRUNO GOMES</text><path class="cls-2" d="M359.78,590.67c0,5.63-4.26,8.86-12.56,8.86H331.57v-32.8h14.71c7.55,0,11.77,3.18,11.77,8.48a7.78,7.78,0,0,1-4.41,7.31A7.92,7.92,0,0,1,359.78,590.67Zm-23.52-20.15V581h9.6c4.78,0,7.5-1.78,7.5-5.25s-2.72-5.25-7.5-5.25Zm18.79,19.78c0-3.8-2.81-5.48-8-5.48H336.26v10.91H347C352.24,595.73,355.05,594.09,355.05,590.3Z" transform="translate(-326.65 -559.7)"/><path class="cls-2" d="M389,599.53l-7.07-10.08c-.66,0-1.36.1-2.07.1h-8.1v10H367v-32.8h12.79c8.53,0,13.69,4.31,13.69,11.43a10.36,10.36,0,0,1-7.22,10.36l7.78,11Zm-.14-21.37c0-4.68-3.14-7.36-9.14-7.36h-8v14.77h8C385.69,585.57,388.83,582.85,388.83,578.16Z" transform="translate(-326.65 -559.7)"/><path class="cls-2" d="M400.83,585.38V566.73h4.68v18.46c0,7.26,3.33,10.54,9.23,10.54s9.28-3.28,9.28-10.54V566.73h4.55v18.65c0,9.51-5.21,14.52-13.87,14.52S400.83,594.89,400.83,585.38Z" transform="translate(-326.65 -559.7)"/><path class="cls-2" d="M466.38,566.73v32.8h-3.84l-19.68-24.46v24.46h-4.69v-32.8H442l19.68,24.46V566.73Z" transform="translate(-326.65 -559.7)"/><path class="cls-2" d="M473.55,583.13c0-9.61,7.4-16.78,17.48-16.78s17.38,7.13,17.38,16.78S501,599.9,491,599.9,473.55,592.73,473.55,583.13Zm30.17,0A12.32,12.32,0,0,0,491,570.52c-7.36,0-12.8,5.35-12.8,12.61s5.44,12.6,12.8,12.6A12.31,12.31,0,0,0,503.72,583.13Z" transform="translate(-326.65 -559.7)"/><path class="cls-2" d="M550.91,582.94h4.5v12.79A19.37,19.37,0,0,1,543,599.9c-10.07,0-17.48-7.07-17.48-16.77s7.41-16.78,17.57-16.78c5.21,0,9.61,1.74,12.61,5.06l-2.91,2.91a13,13,0,0,0-9.51-3.8c-7.59,0-13.07,5.3-13.07,12.61s5.48,12.6,13,12.6a14,14,0,0,0,7.69-2.1Z" transform="translate(-326.65 -559.7)"/><path class="cls-2" d="M561.69,583.13c0-9.61,7.4-16.78,17.47-16.78s17.39,7.13,17.39,16.78-7.4,16.77-17.39,16.77S561.69,592.73,561.69,583.13Zm30.17,0a12.32,12.32,0,0,0-12.7-12.61c-7.35,0-12.79,5.35-12.79,12.61s5.44,12.6,12.79,12.6A12.31,12.31,0,0,0,591.86,583.13Z" transform="translate(-326.65 -559.7)"/><path class="cls-2" d="M634.13,599.53l0-23.9-11.85,19.92h-2.16l-11.85-19.78v23.76h-4.5v-32.8h3.84l13.68,23,13.5-23h3.84l0,32.8Z" transform="translate(-326.65 -559.7)"/><path class="cls-2" d="M672.27,595.45v4.08H648.46v-32.8h23.15v4.07H653.15v10.08H669.6v4H653.15v10.59Z" transform="translate(-326.65 -559.7)"/><path class="cls-2" d="M676.86,595.78l1.73-3.65a16.91,16.91,0,0,0,10.83,3.79c5.67,0,8.11-2.2,8.11-5.06,0-8-19.87-3-19.87-15.14,0-5.06,3.93-9.37,12.56-9.37a19.25,19.25,0,0,1,10.54,2.91L699.21,573a16.91,16.91,0,0,0-9-2.67c-5.58,0-8,2.34-8,5.2,0,8,19.87,3,19.87,15,0,5-4,9.32-12.7,9.32C684.41,599.9,679.48,598.22,676.86,595.78Z" transform="translate(-326.65 -559.7)"/></svg>